<svg width="12" height="12" viewBox="0 0 12 12" fill="none" xmlns="http://www.w3.org/2000/svg">
<path fill-rule="evenodd" clip-rule="evenodd" d="M5.41663 1.33334C5.09446 1.33334 4.83329 1.07217 4.83329 0.750005C4.83329 0.427839 5.09446 0.166672 5.41663 0.166672H11.8333V6.58334C11.8333 6.9055 11.5721 7.16667 11.25 7.16667C10.9278 7.16667 10.6666 6.9055 10.6666 6.58334V2.1583L4.66244 8.16248C4.43463 8.39029 4.06529 8.39029 3.83748 8.16248C3.60967 7.93468 3.60967 7.56533 3.83748 7.33753L9.84167 1.33334H5.41663ZM1.91663 3.66667C1.59446 3.66667 1.33329 3.92784 1.33329 4.25V10.0833C1.33329 10.4055 1.59446 10.6667 1.91663 10.6667H7.74996C8.07212 10.6667 8.33329 10.4055 8.33329 10.0833V7.75C8.33329 7.42784 8.59446 7.16667 8.91663 7.16667C9.23879 7.16667 9.49996 7.42784 9.49996 7.75V10.0833C9.49996 11.0498 8.71646 11.8333 7.74996 11.8333H1.91663C0.950128 11.8333 0.166626 11.0498 0.166626 10.0833V4.25C0.166626 3.28351 0.950128 2.50001 1.91663 2.50001H4.24996C4.57213 2.50001 4.83329 2.76117 4.83329 3.08334C4.83329 3.4055 4.57213 3.66667 4.24996 3.66667H1.91663Z" fill="#2372D5"/>
</svg>
