<svg width="43" height="52" viewBox="0 0 43 52" fill="none" xmlns="http://www.w3.org/2000/svg">
<path fill-rule="evenodd" clip-rule="evenodd" d="M35.6022 36.6542C38.6717 33.8145 40.8146 30.1139 41.7511 26.0356C42.6877 21.9573 42.3743 17.6909 40.8518 13.7938C39.3294 9.89667 36.6687 6.54991 33.2173 4.19068C29.7659 1.83144 25.6842 0.569397 21.5054 0.569397C17.3266 0.569397 13.2449 1.83144 9.79352 4.19068C6.34211 6.54991 3.68142 9.89667 2.15898 13.7938C0.636536 17.6909 0.323115 21.9573 1.25965 26.0356C2.19619 30.1139 4.33915 33.8145 7.40863 36.6542L21.2581 51.0187C25.0039 47.2316 27.0979 42.1698 27.0979 36.9019C27.0979 31.6339 25.0039 26.5721 21.2581 22.785" fill="#00A3DC"/>
</svg>
