<svg width="17" height="15" viewBox="0 0 17 15" fill="none" xmlns="http://www.w3.org/2000/svg">
<path fill-rule="evenodd" clip-rule="evenodd" d="M8.16967 15C12.5337 15 16.0715 11.6421 16.0715 7.5C16.0715 3.35786 12.5337 0 8.16967 0C3.80563 0 0.267883 3.35786 0.267883 7.5C0.267883 11.6421 3.80563 15 8.16967 15Z" fill="#5ABE75"/>
<path d="M4.82639 8.13735C4.6261 7.94724 4.30963 7.9555 4.11952 8.15579C3.92942 8.35607 3.93768 8.67255 4.13796 8.86265L4.82639 8.13735ZM6.58932 10.5L6.24511 10.8627C6.44475 11.0521 6.76002 11.0446 6.95041 10.8459L6.58932 10.5ZM12.2183 5.34585C12.4093 5.14643 12.4025 4.82992 12.203 4.63891C12.0036 4.4479 11.6871 4.45472 11.4961 4.65415L12.2183 5.34585ZM4.13796 8.86265L6.24511 10.8627L6.93353 10.1373L4.82639 8.13735L4.13796 8.86265ZM6.95041 10.8459L12.2183 5.34585L11.4961 4.65415L6.22823 10.1541L6.95041 10.8459Z" fill="white"/>
</svg>
